<?xml version="1.0" encoding="utf-8"?>
<!-- Generator: Adobe Illustrator 19.2.0, SVG Export Plug-In . SVG Version: 6.00 Build 0)  -->
<svg version="1.1" id="Layer_1" xmlns="http://www.w3.org/2000/svg" xmlns:xlink="http://www.w3.org/1999/xlink" x="0px" y="0px"
	 viewBox="0 0 1920 1080" style="enable-background:new 0 0 1920 1080;" xml:space="preserve">
<style type="text/css">
	.st0{fill:#F69B76;}
	.st1{fill:#333333;}
	.st2{fill:#F2F2F2;}
	.st3{fill:#F8C09D;}
	.st4{fill:#4D4D4D;}
	.st5{fill:#754C24;}
	.st6{fill:#EF937E;}
	.st7{fill:#F6AE8D;}
	.st8{fill:#E26C60;}
</style>
<path class="st0" d="M1099,275.6L1099,275.6c-9.4,4-13.2,16.2-8.4,27.2l50.8,118.9c4.7,11,16.1,16.7,25.5,12.7l0,0
	c9.4-4,13.2-16.2,8.4-27.2l-50.8-118.9C1119.8,277.3,1108.4,271.6,1099,275.6z"/>
<path class="st0" d="M1006.8,389.4L1006.8,389.4c-1.9,10,4.7,19.7,14.8,21.5l135,25.2c10,1.9,19.7-4.7,21.5-14.8v0
	c1.9-10-4.7-19.7-14.8-21.5l-135-25.2C1018.3,372.7,1008.7,379.3,1006.8,389.4z"/>
<path class="st1" d="M1128.8,282.5l-40.4,18.9c-1.9,0.9-4.1,0.1-5-1.8l-37.8-81c-0.9-1.9-0.1-4.1,1.8-5l40.4-18.9
	c1.9-0.9,4.1-0.1,5,1.8l37.8,81C1131.5,279.4,1130.7,281.6,1128.8,282.5z"/>
<path class="st2" d="M1121,272.8l-35.1,16.4c-1.5,0.7-3.4,0.1-4.1-1.5l-29.8-63.8c-0.7-1.5-0.1-3.4,1.5-4.1l35.1-16.4
	c1.5-0.7,3.4-0.1,4.1,1.5l29.8,63.8C1123.2,270.2,1122.6,272.1,1121,272.8z"/>
<g>
	<path class="st3" d="M1127.5,268.2l-0.1,0c-3.1,1.4-6.8,0-8.2-3.1l-15.1-33.9c-1.4-3.1,0-6.8,3.1-8.2l0.1,0c3.1-1.4,6.8,0,8.2,3.1
		l15.1,33.9C1132,263.1,1130.6,266.8,1127.5,268.2z"/>
	<path class="st3" d="M1113.3,227L1113.3,227c1.5,3.1,0.1,6.8-3,8.3l-14.9,7.1c-3.1,1.5-6.8,0.1-8.3-3v0c-1.5-3.1-0.1-6.8,3-8.3
		l14.9-7.1C1108.1,222.5,1111.8,223.9,1113.3,227z"/>
	<path class="st3" d="M1118.4,238.5L1118.4,238.5c1.5,3.1,0.1,6.8-3,8.3l-14.9,7.1c-3.1,1.5-6.8,0.1-8.3-3v0c-1.5-3.1-0.1-6.8,3-8.3
		l14.9-7.1C1113.2,234,1116.9,235.4,1118.4,238.5z"/>
	<path class="st3" d="M1123.5,249.9L1123.5,249.9c1.5,3.1,0.1,6.8-3,8.3l-14.9,7.1c-3.1,1.5-6.8,0.1-8.3-3v0c-1.5-3.1-0.1-6.8,3-8.3
		l14.9-7.1C1118.3,245.4,1122,246.8,1123.5,249.9z"/>
	<path class="st3" d="M1128.5,261.2L1128.5,261.2c1.5,3.1,0.1,6.8-3,8.3l-14.9,7.1c-3.1,1.5-6.8,0.1-8.3-3v0c-1.5-3.1-0.1-6.8,3-8.3
		l14.9-7.1C1123.3,256.7,1127.1,258.1,1128.5,261.2z"/>
</g>
<path class="st4" d="M994.3,658.3H993c-41.6,0-75.4-34.2-75.4-75.8v-0.2h152v0.2C1069.6,624.1,1035.9,658.3,994.3,658.3z"/>
<path class="st5" d="M969.3,924.3l0,41l-80.8,0.4c0,0,3-18.4,22.9-21.9c19.8-3.6,36.6,7.8,36.6,7.8l2.1-27.3H969.3z"/>
<rect x="938.6" y="582.3" class="st4" width="41" height="342"/>
<path class="st5" d="M1017.3,924.3l0,41l80.8,0.4c0,0-3-18.4-22.9-21.9c-19.8-3.6-36.6,7.8-36.6,7.8l-2.1-27.3H1017.3z"/>
<rect x="1006.6" y="582.3" transform="matrix(-1 -1.224647e-16 1.224647e-16 -1 2054.2329 1506.5472)" class="st4" width="41" height="342"/>
<path class="st0" d="M964.4,374.7h58.4c25.8,0,46.8,20.9,46.8,46.8v160.8h-152V421.5C917.6,395.6,938.6,374.7,964.4,374.7z"/>
<polygon class="st1" points="1064.1,228.4 1046.2,222.5 1034.1,183 1048.8,178.5 "/>
<ellipse transform="matrix(0.956 -0.2933 0.2933 0.956 -23.7934 317.7425)" class="st3" cx="1047.7" cy="238.2" rx="21.9" ry="21.9"/>
<path class="st6" d="M1055.5,239c-1.3-4.1-5.6-6.4-9.7-5.1c-1.1,0.3-2.1,0.9-2.9,1.7c0.6-2.6,2.5-4.8,5.3-5.6c4.1-1.3,8.4,1,9.7,5.1
	c0.9,3-0.1,6.1-2.2,8C1055.9,241.8,1055.9,240.4,1055.5,239z"/>
<path class="st3" d="M1018.9,375.8c0,13.4-10.9,24.5-24.3,24.5h0h-0.2c-13.4,0-24.5-11.1-24.5-24.5v-21.5h49V375.8z"/>
<path class="st7" d="M1009.9,376.5c3-0.9,6-2.1,9-3.5v-19.7h-49v21.5c0,0.8,0,1.5,0.1,2.3C983.7,380.3,997.8,380.2,1009.9,376.5z"/>
<path class="st3" d="M1009.9,364.5c-33.3,10.2-82.4-6.6-94.9-47.4l-37.7-122.9l147.3-45.2l37.7,122.9
	C1074.8,312.7,1043.2,354.3,1009.9,364.5z"/>
<rect x="881.6" y="247.9" transform="matrix(0.956 -0.2933 0.2933 0.956 -38.8528 275.6261)" class="st1" width="36.3" height="39"/>
<ellipse transform="matrix(0.956 -0.2933 0.2933 0.956 -43.5272 277.7303)" class="st3" cx="904.4" cy="284" rx="21.9" ry="21.9"/>
<path class="st6" d="M901.1,288.2c-1.3-4.1,1-8.4,5.1-9.7c1.1-0.3,2.3-0.4,3.4-0.3c-2-1.8-4.8-2.5-7.5-1.7c-4.1,1.3-6.4,5.6-5.1,9.7
	c0.9,3,3.4,5,6.3,5.4C902.3,290.8,901.5,289.6,901.1,288.2z"/>
<path class="st1" d="M888.2,186.6l0.1,0.4l-9.1,2.8c-11.2,3.4-17.6,15.1-14.1,26.2l-0.1-0.2l8.8,28.6l7.2,23.5l34.7-10.6l-3.3-10.7
	c-2.2-7.1,1.6-14.4,8.7-16.6l112.8-34.6c13.5-4.1,21.1-18.6,17-32.1l-15.1-49.1l-130.4,40C891.8,158.4,884.1,173.1,888.2,186.6z"/>
<path class="st0" d="M821.6,479.5L821.6,479.5c5.4,8.6,16.8,11.2,25.5,5.7l116.1-73.5c8.6-5.4,11.2-16.8,5.7-25.5v0
	c-5.4-8.6-16.8-11.2-25.5-5.7l-116.1,73.5C818.7,459.5,816.1,470.9,821.6,479.5z"/>
<path class="st0" d="M844.7,486.2L844.7,486.2c9.3-4.2,13.4-15.2,9.2-24.4L797,336.7c-4.2-9.3-15.2-13.4-24.4-9.2v0
	c-9.3,4.2-13.4,15.2-9.2,24.4l56.8,125.1C824.5,486.3,835.4,490.4,844.7,486.2z"/>
<path class="st3" d="M791.3,304.9c0.2,8.9,1.5,20.5,2.1,25.4c0.2,1.4-0.6,2.8-1.9,3.3l-26,10.7c-1.4,0.6-2.9,0.1-3.8-1.1
	c-7.9-11.1-14.8-20-18.4-40.4c-5.2-29.3,2.1-35.6,7.6-35.4c3.3,0.1,4.3,4.6,4.6,8.1c1.1-7.5,9.4-6.5,10.9,1.2c1.3-0.4,8.5-1.8,9.2,9
	c0.3,5,2.4,15.2,4.6,20.1c0-1.2-0.1-2.4-0.1-3.7C780,293,791.1,293.3,791.3,304.9z"/>
<path class="st8" d="M1025.3,309.1c4.1-1.2,7.4-4.4,8.8-8.4c1-2.8,2.1-9.5-2-10.5c-2.4-0.6-15,3.6-18.1,4.5c-1.5,0.4-3,0.8-4.3,1.6
	c-5,3.4,1,9.2,4.4,11.3C1017.4,309.8,1021.6,310.3,1025.3,309.1z"/>
<path class="st6" d="M1003.7,261l4.7,15.2c0.2,0.7,1.2,1,1.9,0.7l9-2.7c2.4-0.7,2.9-4,0.8-5.4l-14.2-9.3
	C1004.8,258.8,1003.4,259.9,1003.7,261z"/>
<ellipse transform="matrix(0.956 -0.2933 0.2933 0.956 -33.43 297.4893)" class="st1" cx="975.3" cy="260.2" rx="5" ry="8.8"/>
<ellipse transform="matrix(0.956 -0.2933 0.2933 0.956 -25.2998 314.4725)" class="st1" cx="1036" cy="241.6" rx="5" ry="8.8"/>
</svg>
